<svg xmlns="http://www.w3.org/2000/svg" xmlns:xlink="http://www.w3.org/1999/xlink" viewBox="0 0 950 569"><defs><style>.cls-1{fill:none;}.cls-2{fill:#eaf4ff;}.cls-3{isolation:isolate;}.cls-4{clip-path:url(#clip-path);}.cls-5{clip-path:url(#clip-path-2);}.cls-6,.cls-7,.cls-9{mix-blend-mode:multiply;}.cls-6{fill:url(#linear-gradient);}.cls-7{fill:url(#linear-gradient-2);}.cls-8{fill:#bcd9ff;}.cls-9{fill:url(#linear-gradient-3);}</style><clipPath id="clip-path"><rect class="cls-1" width="950" height="569"/></clipPath><clipPath id="clip-path-2"><rect class="cls-2" width="950" height="569"/></clipPath><linearGradient id="linear-gradient" x1="-67.41" y1="497.42" x2="192.24" y2="497.42" gradientUnits="userSpaceOnUse"><stop offset="0" stop-color="#bcd9ff"/><stop offset="0.06" stop-color="#c0dcff"/><stop offset="0.68" stop-color="#eef5ff"/><stop offset="1" stop-color="#fff"/></linearGradient><linearGradient id="linear-gradient-2" x1="695.3" y1="78.67" x2="936.24" y2="78.67" xlink:href="#linear-gradient"/><linearGradient id="linear-gradient-3" x1="590.01" y1="447.16" x2="1064.6" y2="447.16" xlink:href="#linear-gradient"/></defs><g class="cls-3"><g id="layer_1" data-name="layer 1"><g class="cls-4"><rect class="cls-2" width="950" height="569"/><g class="cls-5"><path class="cls-6" d="M105.93,403.28C14.28,398.82-64.81,470.67-67.35,510.72S2.34,586.86,94,591.32s168-24.39,170.56-64.44S197.58,407.74,105.93,403.28Z"/><path class="cls-7" d="M768.19-1.75C685.14,28.13,631.63,81.77,648.67,118.06s116.48,80.46,199.53,50.58S966.46,46.14,949.42,9.85,851.24-31.64,768.19-1.75Z"/><path class="cls-8" d="M47.27-21.42C-14.85.93-54.87,41.05-42.12,68.19S45,128.37,107.11,106,195.57,14.4,182.82-12.74,109.39-43.77,47.27-21.42Z"/><path class="cls-9" d="M727.27,271.92C561.58,313.52,472,483.68,495.69,556.09s177.27,97.38,343,55.78,280.77-134,257.05-206.42S893,230.33,727.27,271.92Z"/></g></g></g></g></svg>