<svg version="1.1" id="Layer_1" xmlns="http://www.w3.org/2000/svg" xmlns:xlink="http://www.w3.org/1999/xlink" x="0px" y="0px"
	 width="100%" viewBox="0 0 808 284" enable-background="new 0 0 808 284" xml:space="preserve">
<path fill="#f5f5f5" opacity="1.000000" stroke="none" 
	d="
M538.000000,285.000000 
	C358.707581,285.000000 179.915161,285.000000 1.061366,285.000000 
	C1.061366,190.395935 1.061366,95.791817 1.061366,1.093850 
	C270.209106,1.093850 539.418274,1.093850 808.813721,1.093850 
	C808.813721,95.666374 808.813721,190.333145 808.813721,285.000000 
	C718.791748,285.000000 628.645874,285.000000 538.000000,285.000000 
M141.430389,154.810104 
	C143.816589,143.559433 143.609253,132.362167 140.931686,121.171677 
	C134.093750,92.593506 102.221252,72.655724 74.450623,80.237595 
	C67.821632,82.047432 61.828873,86.187607 55.333691,89.358376 
	C55.333691,86.901207 55.333691,83.977226 55.333691,81.165085 
	C43.301605,81.165085 31.742569,81.165085 20.207218,81.165085 
	C20.207218,134.257797 20.207218,187.007965 20.207218,240.295975 
	C31.927019,239.302170 43.610123,241.967072 55.058563,238.280396 
	C55.058563,220.744492 55.058563,203.633240 55.058563,186.564072 
	C60.991982,193.008774 68.145370,197.245544 76.657692,198.926056 
	C105.388390,204.598038 135.341278,184.455887 141.430389,154.810104 
M217.931213,147.481766 
	C218.612213,151.242279 219.054245,155.064789 220.011093,158.753754 
	C229.812408,196.541245 280.011292,213.104279 304.823975,187.496048 
	C304.823975,190.888748 304.823975,194.115692 304.823975,197.191956 
	C317.142853,197.191956 328.723053,197.191956 340.260468,197.191956 
	C340.260468,158.295364 340.260468,119.715195 340.260468,81.090836 
	C328.433350,81.090836 316.855652,81.090836 304.804321,81.090836 
	C304.804321,84.371155 304.804321,87.399315 304.804321,89.138741 
	C298.403656,86.095512 292.209412,81.715950 285.375061,80.174316 
	C266.111145,75.828979 249.076019,81.535637 234.911774,94.996529 
	C220.143906,109.031082 216.044540,126.913475 217.931213,147.481766 
M424.807220,80.141251 
	C413.801880,83.033241 405.679535,89.880043 398.780792,100.229019 
	C398.780792,92.927872 398.780792,86.986916 398.780792,81.163116 
	C386.885101,81.163116 375.329498,81.163116 363.768799,81.163116 
	C363.768799,120.086449 363.768799,158.665955 363.768799,197.193893 
	C375.636383,197.193893 387.213165,197.193893 399.002289,197.193893 
	C399.002289,177.719711 399.002289,158.562302 399.002289,139.404892 
	C399.002289,126.275215 406.433990,115.108208 419.120575,111.083519 
	C431.237762,107.239441 441.292328,111.036652 442.991302,124.709488 
	C443.441895,128.335938 443.767120,132.003159 443.786865,135.653625 
	C443.872467,151.485397 443.823730,167.317902 443.823792,183.150131 
	C443.823822,187.787979 443.823822,192.425842 443.823822,197.191422 
	C455.780060,197.191422 467.344421,197.191422 479.091675,197.191422 
	C479.091675,173.886200 479.141541,150.899994 479.042297,127.914413 
	C479.025848,124.104515 478.608246,120.253624 477.950806,116.496071 
	C473.301147,89.920250 451.253784,74.579788 424.807220,80.141251 
M759.101257,133.627899 
	C767.020874,115.933235 774.940491,98.238571 783.031921,80.160004 
	C771.914490,80.160004 761.438904,80.023476 750.974731,80.306496 
	C749.396423,80.349182 747.159241,82.007149 746.442383,83.501183 
	C743.072327,90.524658 740.127014,97.751968 737.028809,104.905945 
	C729.889648,121.390823 722.749695,137.875366 715.243286,155.206848 
	C704.060608,129.628632 693.249939,104.901299 682.557007,80.443359 
	C670.564880,80.443359 659.029968,80.443359 647.187500,80.443359 
	C647.906311,82.152924 648.451233,83.525787 649.054565,84.872444 
	C664.538818,119.431625 679.962585,154.018311 695.615234,188.501068 
	C697.289185,192.188843 697.245728,194.985855 695.463318,198.565994 
	C690.579773,208.374725 686.140320,218.404770 681.538635,228.353470 
	C679.819824,232.069458 678.138672,235.802856 676.147400,240.170914 
	C687.013916,240.170914 697.127808,239.992889 707.229248,240.270172 
	C710.638062,240.363739 712.030884,239.183777 713.364014,236.176254 
	C728.428955,202.188965 743.665955,168.277924 759.101257,133.627899 
M572.785522,197.509216 
	C583.083313,197.509216 593.381104,197.509216 604.097656,197.509216 
	C604.097656,168.109222 604.097656,139.195801 604.097656,109.921150 
	C612.279419,109.921150 620.042908,109.921150 627.803040,109.921150 
	C627.803040,100.016853 627.803040,90.483009 627.803040,80.554482 
	C619.682739,80.554482 611.926636,80.554482 604.239380,80.554482 
	C602.544189,66.446838 610.004395,64.147163 620.861572,66.364975 
	C623.381592,66.879745 625.816833,67.809433 628.312805,68.554680 
	C632.406738,60.194794 636.258667,52.329197 640.223694,44.232555 
	C625.768555,36.071236 610.621582,34.796967 595.064209,38.373363 
	C579.903320,41.858601 571.575317,52.080120 569.114929,67.200188 
	C568.402222,71.580032 568.216980,76.045708 567.741699,80.971107 
	C562.561707,80.971107 557.491821,80.971107 552.460327,80.971107 
	C552.460327,90.905449 552.460327,100.314453 552.460327,110.168159 
	C557.837463,110.168159 562.923157,110.168159 568.161438,110.168159 
	C568.161438,112.439827 568.161438,114.261322 568.161438,116.082809 
	C568.161438,141.749329 568.178223,167.415894 568.136414,193.082336 
	C568.132080,195.746689 567.918213,198.294632 572.785522,197.509216 
M162.473312,174.499710 
	C162.473312,182.094360 162.473312,189.689011 162.473312,197.211853 
	C174.641846,197.211853 186.214127,197.211853 197.628296,197.211853 
	C197.628296,144.238998 197.628296,91.574104 197.628296,39.031425 
	C185.801712,39.031425 174.353760,39.031425 162.473373,39.031425 
	C162.473373,83.997536 162.473373,128.748627 162.473312,174.499710 
M536.165771,182.498169 
	C536.165771,148.756454 536.165771,115.014732 536.165771,81.107697 
	C524.206787,81.107697 512.671387,81.107697 501.220612,81.107697 
	C501.220612,120.041878 501.220612,158.693192 501.220612,197.192062 
	C513.018738,197.192062 524.424194,197.192062 536.165771,197.192062 
	C536.165771,192.432785 536.165771,187.964752 536.165771,182.498169 
M506.677887,68.517555 
	C516.424072,68.517555 526.170227,68.517555 535.921631,68.517555 
	C535.921631,58.319859 535.921631,48.748642 535.921631,38.815800 
	C529.892029,38.815800 524.109375,38.815804 518.326660,38.815804 
	C512.576233,38.815804 506.825836,38.815800 501.067932,38.815800 
	C501.067932,48.991035 501.067932,58.556709 501.067932,68.517471 
	C502.783875,68.517471 504.253693,68.517471 506.677887,68.517555 
z"/>
<path fill="#121212" opacity="1.000000" stroke="none" 
	d="
M141.317612,155.217453 
	C135.341278,184.455887 105.388390,204.598038 76.657692,198.926056 
	C68.145370,197.245544 60.991982,193.008774 55.058563,186.564072 
	C55.058563,203.633240 55.058563,220.744492 55.058563,238.280396 
	C43.610123,241.967072 31.927019,239.302170 20.207218,240.295975 
	C20.207218,187.007965 20.207218,134.257797 20.207218,81.165085 
	C31.742569,81.165085 43.301605,81.165085 55.333691,81.165085 
	C55.333691,83.977226 55.333691,86.901207 55.333691,89.358376 
	C61.828873,86.187607 67.821632,82.047432 74.450623,80.237595 
	C102.221252,72.655724 134.093750,92.593506 140.931686,121.171677 
	C143.609253,132.362167 143.816589,143.559433 141.317612,155.217453 
M80.515198,168.446182 
	C98.250160,168.358109 107.916183,155.684265 108.765579,140.403152 
	C109.857018,120.767311 92.474625,105.788391 73.976868,110.677650 
	C60.070168,114.353409 52.854492,126.110962 54.179672,142.756668 
	C55.328262,157.184204 64.644630,168.044281 80.515198,168.446182 
z"/>
<path fill="#121212" opacity="1.000000" stroke="none" 
	d="
M217.886200,147.036652 
	C216.044540,126.913475 220.143906,109.031082 234.911774,94.996529 
	C249.076019,81.535637 266.111145,75.828979 285.375061,80.174316 
	C292.209412,81.715950 298.403656,86.095512 304.804321,89.138741 
	C304.804321,87.399315 304.804321,84.371155 304.804321,81.090836 
	C316.855652,81.090836 328.433350,81.090836 340.260468,81.090836 
	C340.260468,119.715195 340.260468,158.295364 340.260468,197.191956 
	C328.723053,197.191956 317.142853,197.191956 304.823975,197.191956 
	C304.823975,194.115692 304.823975,190.888748 304.823975,187.496048 
	C280.011292,213.104279 229.812408,196.541245 220.011093,158.753754 
	C219.054245,155.064789 218.612213,151.242279 217.886200,147.036652 
M268.079773,112.336472 
	C255.640991,118.465675 251.134140,128.779129 251.944519,142.174332 
	C252.793457,156.207214 262.894531,166.975739 276.715820,168.127426 
	C291.958618,169.397568 302.988159,161.748383 305.594971,146.967712 
	C307.717316,134.934235 306.643616,123.243294 295.826477,114.972809 
	C287.488373,108.597740 278.243073,109.024971 268.079773,112.336472 
z"/>
<path fill="#131313" opacity="1.000000" stroke="none" 
	d="
M425.220398,80.063431 
	C451.253784,74.579788 473.301147,89.920250 477.950806,116.496071 
	C478.608246,120.253624 479.025848,124.104515 479.042297,127.914413 
	C479.141541,150.899994 479.091675,173.886200 479.091675,197.191422 
	C467.344421,197.191422 455.780060,197.191422 443.823822,197.191422 
	C443.823822,192.425842 443.823822,187.787979 443.823792,183.150131 
	C443.823730,167.317902 443.872467,151.485397 443.786865,135.653625 
	C443.767120,132.003159 443.441895,128.335938 442.991302,124.709488 
	C441.292328,111.036652 431.237762,107.239441 419.120575,111.083519 
	C406.433990,115.108208 399.002289,126.275215 399.002289,139.404892 
	C399.002289,158.562302 399.002289,177.719711 399.002289,197.193893 
	C387.213165,197.193893 375.636383,197.193893 363.768799,197.193893 
	C363.768799,158.665955 363.768799,120.086449 363.768799,81.163116 
	C375.329498,81.163116 386.885101,81.163116 398.780792,81.163116 
	C398.780792,86.986916 398.780792,92.927872 398.780792,100.229019 
	C405.679535,89.880043 413.801880,83.033241 425.220398,80.063431 
z"/>
<path fill="#131313" opacity="1.000000" stroke="none" 
	d="
M758.979126,133.987183 
	C743.665955,168.277924 728.428955,202.188965 713.364014,236.176254 
	C712.030884,239.183777 710.638062,240.363739 707.229248,240.270172 
	C697.127808,239.992889 687.013916,240.170914 676.147400,240.170914 
	C678.138672,235.802856 679.819824,232.069458 681.538635,228.353470 
	C686.140320,218.404770 690.579773,208.374725 695.463318,198.565994 
	C697.245728,194.985855 697.289185,192.188843 695.615234,188.501068 
	C679.962585,154.018311 664.538818,119.431625 649.054565,84.872444 
	C648.451233,83.525787 647.906311,82.152924 647.187500,80.443359 
	C659.029968,80.443359 670.564880,80.443359 682.557007,80.443359 
	C693.249939,104.901299 704.060608,129.628632 715.243286,155.206848 
	C722.749695,137.875366 729.889648,121.390823 737.028809,104.905945 
	C740.127014,97.751968 743.072327,90.524658 746.442383,83.501183 
	C747.159241,82.007149 749.396423,80.349182 750.974731,80.306496 
	C761.438904,80.023476 771.914490,80.160004 783.031921,80.160004 
	C774.940491,98.238571 767.020874,115.933235 758.979126,133.987183 
z"/>
<path fill="#131313" opacity="1.000000" stroke="none" 
	d="
M572.321777,197.509140 
	C567.918213,198.294632 568.132080,195.746689 568.136414,193.082336 
	C568.178223,167.415894 568.161438,141.749329 568.161438,116.082809 
	C568.161438,114.261322 568.161438,112.439827 568.161438,110.168159 
	C562.923157,110.168159 557.837463,110.168159 552.460327,110.168159 
	C552.460327,100.314453 552.460327,90.905449 552.460327,80.971107 
	C557.491821,80.971107 562.561707,80.971107 567.741699,80.971107 
	C568.216980,76.045708 568.402222,71.580032 569.114929,67.200188 
	C571.575317,52.080120 579.903320,41.858601 595.064209,38.373363 
	C610.621582,34.796967 625.768555,36.071236 640.223694,44.232555 
	C636.258667,52.329197 632.406738,60.194794 628.312805,68.554680 
	C625.816833,67.809433 623.381592,66.879745 620.861572,66.364975 
	C610.004395,64.147163 602.544189,66.446838 604.239380,80.554482 
	C611.926636,80.554482 619.682739,80.554482 627.803040,80.554482 
	C627.803040,90.483009 627.803040,100.016853 627.803040,109.921150 
	C620.042908,109.921150 612.279419,109.921150 604.097656,109.921150 
	C604.097656,139.195801 604.097656,168.109222 604.097656,197.509216 
	C593.381104,197.509216 583.083313,197.509216 572.321777,197.509140 
z"/>
<path fill="#151515" opacity="1.000000" stroke="none" 
	d="
M162.473343,173.999725 
	C162.473373,128.748627 162.473373,83.997536 162.473373,39.031425 
	C174.353760,39.031425 185.801712,39.031425 197.628296,39.031425 
	C197.628296,91.574104 197.628296,144.238998 197.628296,197.211853 
	C186.214127,197.211853 174.641846,197.211853 162.473312,197.211853 
	C162.473312,189.689011 162.473312,182.094360 162.473343,173.999725 
z"/>
<path fill="#111111" opacity="1.000000" stroke="none" 
	d="
M536.165771,182.997437 
	C536.165771,187.964752 536.165771,192.432785 536.165771,197.192062 
	C524.424194,197.192062 513.018738,197.192062 501.220612,197.192062 
	C501.220612,158.693192 501.220612,120.041878 501.220612,81.107697 
	C512.671387,81.107697 524.206787,81.107697 536.165771,81.107697 
	C536.165771,115.014732 536.165771,148.756454 536.165771,182.997437 
z"/>
<path fill="#151515" opacity="1.000000" stroke="none" 
	d="
M506.200684,68.517517 
	C504.253693,68.517471 502.783875,68.517471 501.067932,68.517471 
	C501.067932,58.556709 501.067932,48.991035 501.067932,38.815800 
	C506.825836,38.815800 512.576233,38.815804 518.326660,38.815804 
	C524.109375,38.815804 529.892029,38.815800 535.921631,38.815800 
	C535.921631,48.748642 535.921631,58.319859 535.921631,68.517555 
	C526.170227,68.517555 516.424072,68.517555 506.200684,68.517517 
z"/>
<path fill="#FDFDFD" opacity="1.000000" stroke="none" 
	d="
M80.052330,168.398285 
	C64.644630,168.044281 55.328262,157.184204 54.179672,142.756668 
	C52.854492,126.110962 60.070168,114.353409 73.976868,110.677650 
	C92.474625,105.788391 109.857018,120.767311 108.765579,140.403152 
	C107.916183,155.684265 98.250160,168.358109 80.052330,168.398285 
z"/>
<path fill="#FDFDFD" opacity="1.000000" stroke="none" 
	d="
M268.439087,112.185883 
	C278.243073,109.024971 287.488373,108.597740 295.826477,114.972809 
	C306.643616,123.243294 307.717316,134.934235 305.594971,146.967712 
	C302.988159,161.748383 291.958618,169.397568 276.715820,168.127426 
	C262.894531,166.975739 252.793457,156.207214 251.944519,142.174332 
	C251.134140,128.779129 255.640991,118.465675 268.439087,112.185883 
z"/>
</svg>