<svg version="1.1" id="Layer_1" xmlns="http://www.w3.org/2000/svg" xmlns:xlink="http://www.w3.org/1999/xlink" x="0px" y="0px"
	 width="100%" viewBox="0 70 150 180" enable-background="new 0 0 808 284" xml:space="preserve">
<path fill="#0c6bcb" opacity="1.000000" stroke="none" 
	d="
M141.317612,155.217453 
	C135.341278,184.455887 105.388390,204.598038 76.657692,198.926056 
	C68.145370,197.245544 60.991982,193.008774 55.058563,186.564072 
	C55.058563,203.633240 55.058563,220.744492 55.058563,238.280396 
	C43.610123,241.967072 31.927019,239.302170 20.207218,240.295975 
	C20.207218,187.007965 20.207218,134.257797 20.207218,81.165085 
	C31.742569,81.165085 43.301605,81.165085 55.333691,81.165085 
	C55.333691,83.977226 55.333691,86.901207 55.333691,89.358376 
	C61.828873,86.187607 67.821632,82.047432 74.450623,80.237595 
	C102.221252,72.655724 134.093750,92.593506 140.931686,121.171677 
	C143.609253,132.362167 143.816589,143.559433 141.317612,155.217453 
M80.515198,168.446182 
	C98.250160,168.358109 107.916183,155.684265 108.765579,140.403152 
	C109.857018,120.767311 92.474625,105.788391 73.976868,110.677650 
	C60.070168,114.353409 52.854492,126.110962 54.179672,142.756668 
	C55.328262,157.184204 64.644630,168.044281 80.515198,168.446182 
z"/>
</svg>

